<?xml version="1.0" encoding="utf-8"?>
<!-- Generator: Adobe Illustrator 18.0.0, SVG Export Plug-In . SVG Version: 6.00 Build 0)  -->
<svg version="1.2" baseProfile="tiny" id="Layer_1" xmlns="http://www.w3.org/2000/svg" xmlns:xlink="http://www.w3.org/1999/xlink"
	 x="0px" y="0px" viewBox="0 0 42 42" xml:space="preserve">
<g>
	<g>
		<path fill="#FFFFFF" d="M2.2,7.5C8.4,12.7,14.7,18.2,21,23c6.3-5,12.5-10.5,18.6-15.5c0.2-0.2,0.6-0.4,0.4-0.4
			C29.4,6.9,17.9,6.9,7,6.9c-1.6,0-3.4,0-4.8,0H2C1.6,7.1,2.4,7.5,2.2,7.5z M3.4,11.5c-1-1-2.2-2-3.4-2.8c0,0.2,0,0.4,0,0.6v23.6
			c0,0.2,0.2,0.4,0.2,0.4c4.4-4.2,9.1-8.7,13.7-12.9C10.5,17.4,7,14.6,3.4,11.5z M42,15c0-1.8,0-4.6,0-6.3
			c-4.6,3.6-9.1,7.7-13.7,11.5c4.4,4.2,8.9,8.7,13.3,12.7c0.2,0.2,0.4,0.4,0.4,0.2C42.2,27.5,42,21,42,15z M38.5,33.3
			c-0.6-0.6-1.2-1-1.6-1.6c-3-3-6.5-6.1-9.5-9.1c-0.2-0.2-0.8-0.8-0.8-0.8s-0.4,0.4-0.6,0.6c-1.6,1.2-3.2,2.6-4.6,3.8
			c-2.2-1.6-3.8-3-5.7-4.4c-2.2,2-4.6,4.4-7.1,6.7c-2.2,2-4.2,4.2-6.5,6.1c0,0-0.4,0.2-0.2,0.4c12.5,0.2,25.6,0.2,38.2,0
			C39.7,34.4,39.1,33.9,38.5,33.3z"/>
	</g>
</g>
</svg>
