<?xml version="1.0" encoding="utf-8"?>
<!-- Generator: Adobe Illustrator 18.0.0, SVG Export Plug-In . SVG Version: 6.00 Build 0)  -->
<!DOCTYPE svg PUBLIC "-//W3C//DTD SVG 1.1//EN" "http://www.w3.org/Graphics/SVG/1.1/DTD/svg11.dtd">
<svg version="1.1" id="Layer_1" xmlns="http://www.w3.org/2000/svg" xmlns:xlink="http://www.w3.org/1999/xlink" x="0px" y="0px"
	 viewBox="0 0 11 21.2" enable-background="new 0 0 11 21.2" xml:space="preserve">
<path d="M11,0.2c0,1.1,0,2.3,0,3.4c-0.6-0.1-1.3-0.1-2-0.1c-0.6,0-1.3,0.1-1.6,0.5C7.1,4.5,7.2,5.2,7.2,5.8c0,0.7,0,1.3,0,1.9
	c1.2,0,2.4,0,3.7,0c-0.2,1.2-0.4,2.4-0.6,3.7c-1,0-2.1,0-3,0c0,3.2,0,6.5,0,9.7c-1.4,0-2.7,0-4.1,0c0-3.2,0-6.5,0-9.7
	c-1,0-2.1,0-3.1,0C0,10.3,0,9,0,7.7c1.1,0,2.2,0,3.3,0C3.3,6.8,3.2,5.9,3.3,5c0-0.9,0.1-1.8,0.4-2.4C4,1.8,4.6,1.2,5.3,0.8
	C6,0.3,6.9,0.1,7.9,0C9,0,10.1,0,11,0.2z"/>
<path d="M12.7,55.3c1-0.2,1.9-0.6,2.7-1c-0.3,1-1,1.7-1.7,2.3c0.9,0,1.5-0.4,2.3-0.5c-0.5,0.9-1.4,1.5-2.1,2.3
	c0,6.8-4.6,12.2-11,12.7c-2.9,0.2-5.6-0.5-7.8-1.8c2.4,0.1,4.7-0.7,6.2-1.8c-2-0.3-3.4-1.3-4-3.1c0.6,0.1,1.1,0,1.7,0
	c-1.7-0.8-3.2-1.9-3.3-4.3c0.6,0.2,1,0.4,1.7,0.5c-1.2-0.9-2.4-3.7-1.2-5.7C-1.5,57,1,59,5.2,59.2C4.4,54.6,10.1,52.4,12.7,55.3z"/>
<g>
	<g>
		<path d="M6.7,116.4c-0.7-0.6-2.2-1.3-2.3-2.2c-0.2-1.4,1.3-1.9,2-2.7c0.5-0.6,1.1-1.7,1.1-2.8c0-1.6-0.8-2.7-1.8-3.6
			c1.7,0.2,2.4-0.6,3.3-1.1c-2.4,0.1-4.7-0.1-6.9,0.1c-3.4,0.3-6,2-5.7,5.5c0.2,2.5,2.5,4.3,5.5,4c-0.7,1,0.1,2.3,0.5,2.9
			c-3.6,0.2-7.1,1.1-7.4,4.3c-0.3,3,2.6,4.2,5.3,4.3c2.7,0.2,5.3-0.7,6.7-2c0.6-0.6,1.3-1.6,1.4-2.6C8.6,118.3,7.6,117.2,6.7,116.4z
			 M1.2,105.1c0.5-0.1,1.2,0.1,1.6,0.3c2.1,1.2,3.5,7-0.1,7.4C-1,113.3-2.9,105.5,1.2,105.1z M-2.1,121.9c-0.3-0.5-0.6-1.4-0.2-2.3
			c0.6-1.7,3.1-2.3,5.8-2.3c1.4,1.2,3.1,1.6,3.1,3.6C6.6,124.6-0.6,124.6-2.1,121.9z M13.2,113.3v-2.8h-1.4v2.8H9v1.4
			c0.9,0,2-0.1,2.8,0.1v2.7h1.4v-2.8H16v-1.4H13.2z"/>
	</g>
</g>
<g>
	<g>
		<path d="M14.3,162.5c0.4-1.7-0.3-3.7-0.7-5c-1.6,0.2-2.9,0.9-4.1,1.6c-0.4,0.2-0.9,0.7-1.2,0.7c-0.4,0-0.8-0.2-1.3-0.2
			c-1.6-0.1-3,0-4.3,0.2c-1.5-1-3-2-5.2-2.3c-0.1,0-0.1,0.1-0.1,0.1c-0.5,1.3-1,3.1-0.7,4.9c-0.9,1.1-1.6,2.2-1.7,4
			c-0.2,3.2,0.8,5.7,2.6,7.1c1.8,1.5,4.9,1.8,7.9,1.8c3.1,0,5.9-0.3,7.7-1.7c1.8-1.3,2.7-3.6,2.7-6.7C16,165,15.2,163.7,14.3,162.5z
			 M12.2,172.7c-1.3,1.3-4,1.5-6.4,1.6c-2.9,0.1-6.3-0.3-7.3-2c-0.5-0.8-0.8-2.4-0.5-3.7c0.4-1.4,1.5-2.2,3.2-2.4
			c1.6-0.1,3.1,0.2,4.9,0.1c0.8,0,1.6-0.1,2.4-0.1c0.9,0,2-0.1,2.7,0.2C13.3,167.3,14,170.9,12.2,172.7z M1.8,167.9
			c-1.7,0.2-1.7,3.5-0.3,4C3.8,172.8,4.1,167.6,1.8,167.9z M9,167.9c-1.7,0.2-1.7,3.4-0.3,4C11,172.8,11.3,167.6,9,167.9z"/>
	</g>
</g>
<g>
	<g>
		<path d="M12.7,258.9c-0.5-0.3-1.2,0.2-1.9,0.2c0.5,3,1,6.1,1.5,9.1c0.6-0.1,1.1-0.3,1.8-0.3C13.7,264.7,13,262,12.7,258.9z
			 M5.6,261.9c1.6,2.4,3.2,4.9,4.7,7.4c0.8-0.1,0.9-0.8,1.6-0.9c-1.5-2.6-3.2-5-4.7-7.5C6.4,260.9,6.1,261.5,5.6,261.9z M10.2,269.6
			c-2.5-1.5-4.8-3.3-7.5-4.5c-0.2,0.7-0.7,0.9-0.7,1.7c2.5,1.4,4.9,3.1,7.4,4.5C9.4,270.6,9.9,270.2,10.2,269.6z M9,271.8
			c-2.7-0.8-5.5-1.6-8.3-2.4c-0.1,0.7-0.4,1.2-0.4,1.9c2.8,0.8,5.5,1.7,8.4,2.4C8.6,272.9,9,272.6,9,271.8z M9.6,280.3H-1.5v-7.8
			h-1.3c-0.3,2.8,0,6.3-0.1,9.4h14.2v-9.4H9.7C9.6,275,9.9,278,9.6,280.3z M-0.2,275.6c2.9,0.1,5.6,0.5,8.4,0.8
			c0.2-0.5,0.2-1.4,0.3-2c-2.9-0.2-5.6-0.6-8.6-0.8C-0.3,273.9-0.1,274.9-0.2,275.6z M8.3,276.8h-8.6v2h8.6V276.8z"/>
	</g>
</g>
<g>
	<g>
		<path d="M5.5,208.4H1.2c-3.1,0-5.7,2.6-5.7,5.7v4.3h4.4v-4.3c0-0.7,0.6-1.3,1.3-1.3h4.3V208.4z M11.1,218.4v4.3
			c0,0.7-0.6,1.3-1.3,1.3H5.5v4.4h4.3c3.1,0,5.7-2.6,5.7-5.7v-4.3H11.1z"/>
	</g>
</g>
<g>
	<g>
		<path d="M13.2,324.6c0.5,0.2,1.1,0.4,1.8,0.4c0.7-0.8,0.8-1.8,0.9-2.9c0.1-2.9-1.2-5.5-2.9-7.2c-1.6-1.6-4-2.6-6.3-2.7
			c-0.2,0-0.4,0-0.6,0c-1.2,0.2-2.5,0.3-3.3,1c0.8,0.2,1.4-0.1,2.1-0.3c2.9-0.5,5.7,0.5,7.4,2.1c1.7,1.7,3.5,5.3,1.9,8.2
			c0.4,0.1,0.3-0.6,0.6-0.5c0,1.2-2.3,1.5-2.3,0.1c-0.4-0.1-0.8-0.1-1.1-0.3c0.6,2.2-0.7,3.6-2.7,3.4c-2.3-0.2-4.9-2.6-4.8-5.4
			c0-1.7,1-2.9,3-2.9c0.9,0,1.3,0.3,2,0.6c-0.3-0.9,0.7-1.3,1.4-0.9c-0.1-0.5-0.4-0.8-0.9-0.9c-0.4-0.1-0.9,0.1-1.1-0.2
			c0.2-0.3,0.6,0,0.9-0.2c-1.7-1.3-3.8-2.5-6.7-2.7c-1.7-0.1-2.9,0.1-4.5,0.4c-0.7,0.1-2.1,0.4-2,1c0,0.4,0.9,0.8,1.1,1
			c0.6,0.6,1.2,1.5,1.5,2.5c0.2,0.7,0.7,2.6,1.5,2.5c0.6,0,0.8-1.1,1.2-1.5c0.3-0.3,0.6-0.2,1-0.6c-0.1-0.6-0.7-0.5-0.9-1
			c0.6,0.1,1.3,0.4,1.5,1.1c-0.2,0.2-0.5,0.3-0.8,0.5c0.4,0.6,0.7,1.5,1.2,1.7c0.1-0.4,0-1,0.1-1.3c0.1,3.6,1.7,5.2,4.1,6.3
			c0.8,0.4,2.5,0.8,2.6,1.7c0.1,0.8-0.8,1.7-1.4,2.1c-3.4,2.1-8-0.2-10-2.3c-1.6-1.6-2.9-3.8-3-6.6c-0.1-1.2,0.1-2.2,0.3-3.1
			c0.1-0.4,0.6-1.1,0.1-1.5c-0.6,0.2-0.7,1-0.8,1.5c-0.2,0.7-0.3,1.4-0.3,2.1c-0.3,7.1,4.4,11.9,10.8,12.2c1.5,0.1,2.8-0.3,3.9-0.8
			c0.9-0.4,2.1-1.1,2.5-2.3c0.2-0.5,0.2-1.6,0-2c-0.2-0.3-0.7-0.5-0.6-1c1,0.7,2,2,1.4,3.8c1.5,0.4,2-1.7,1.5-2.8
			c-0.5-0.9-1.7-1.1-1.9-1.7c0.7,0.5,1.8,0.6,2.3,1.3c0.2,0.2,0.2,0.5,0.5,0.7c0.4-0.2,0.6-0.5,0.5-1
			C15.7,325.3,13.7,325.4,13.2,324.6z M6.1,316.7c-0.4,0.4-1,0.4-1.4,0.7c-0.4,0.3-0.4,1-0.9,1.1C4.1,317.4,5.1,316.6,6.1,316.7z
			 M12.7,322.3c0.2-0.2,0.2-0.8,0.1-1.3c-0.2-1.7-1.7-3.7-3.4-3.5c-0.6,0.8,0.1,1.3,0.5,1.7c0.8,0.8,1.2,1.7,1.5,2.9
			C11.8,322.3,12.4,322.6,12.7,322.3z M12.1,320.3c-0.7-0.2-1.2-0.9-1.2-1.7C11.3,318.1,12.4,319.6,12.1,320.3z M6.5,318.2
			c-1,0.1-1.8,0.7-2,1.4c-1.1,2.9,2.2,6,4.5,5.9c0.6,0,1.3-0.3,1.7-0.8c1.2-1.4,0-4.4-0.8-5.3C9.4,318.8,7.9,318,6.5,318.2z
			 M8.4,322.5c-1.1-0.1-2.2-2.5-0.8-3c0.6-0.2,1.5,0.2,1.8,0.9C9.8,321.4,9.5,322.7,8.4,322.5z"/>
	</g>
</g>
<g>
	<g>
		<path d="M-3.8,367.6c3.1,2.6,6.2,5.3,9.3,7.7c3.1-2.5,6.2-5.2,9.2-7.7c0.1-0.1,0.3-0.2,0.2-0.2c-5.3-0.1-11,0-16.4,0
			c-0.8,0-1.6-0.1-2.4,0c0,0-0.1,0-0.1,0C-4.1,367.4-3.7,367.6-3.8,367.6z M-3.2,369.6c-0.6-0.5-1.1-1-1.7-1.4c0,0.1,0,0.2,0,0.3
			v11.7c0,0.1,0.1,0.2,0.1,0.2c2.3-2.1,4.6-4.3,6.8-6.5C0.2,372.5-1.5,371-3.2,369.6z M15.9,371.2c0-0.9,0-2.3,0-3.1
			c-2.3,1.8-4.5,3.8-6.8,5.7c2.2,2.1,4.4,4.3,6.6,6.3c0.1,0.1,0.2,0.2,0.2,0.1C15.9,377.4,15.9,374.3,15.9,371.2z M14.2,380.4
			c-0.3-0.3-0.6-0.5-0.8-0.8c-1.5-1.5-3.2-3-4.7-4.5c-0.1-0.1-0.4-0.4-0.4-0.4c0,0-0.2,0.2-0.3,0.3c-0.8,0.6-1.6,1.3-2.3,1.9
			c-0.9-0.7-1.7-1.4-2.6-2.1c-1.1,1-2.3,2.2-3.5,3.3c-1.1,1-2.1,2.1-3.2,3c0,0-0.2,0.1-0.1,0.2c6.2,0.1,12.7,0.1,18.9,0
			C14.8,380.9,14.5,380.6,14.2,380.4z"/>
	</g>
</g>
</svg>
