<?xml version="1.0" encoding="utf-8"?>
<!-- Generator: Adobe Illustrator 18.0.0, SVG Export Plug-In . SVG Version: 6.00 Build 0)  -->
<!DOCTYPE svg PUBLIC "-//W3C//DTD SVG 1.1//EN" "http://www.w3.org/Graphics/SVG/1.1/DTD/svg11.dtd">
<svg version="1.1" id="Layer_1" xmlns="http://www.w3.org/2000/svg" xmlns:xlink="http://www.w3.org/1999/xlink" x="0px" y="0px"
	 viewBox="0 0 21 17.9" enable-background="new 0 0 21 17.9" xml:space="preserve" fill="#FFF" width="30px" height="30px">
<path d="M16-157.3c0,1.1,0,2.3,0,3.4c-0.6-0.1-1.3-0.1-2-0.1c-0.6,0-1.3,0.1-1.6,0.5c-0.3,0.4-0.2,1.1-0.2,1.7c0,0.7,0,1.3,0,1.9
	c1.2,0,2.4,0,3.7,0c-0.2,1.2-0.4,2.4-0.6,3.7c-1,0-2.1,0-3,0c0,3.2,0,6.5,0,9.7c-1.4,0-2.7,0-4.1,0c0-3.2,0-6.5,0-9.7
	c-1,0-2.1,0-3.1,0c0-1.2,0-2.4,0-3.7c1.1,0,2.2,0,3.3,0c-0.1-0.9-0.1-1.9-0.1-2.8c0-0.9,0.1-1.8,0.4-2.4c0.4-0.7,0.9-1.3,1.6-1.8
	c0.7-0.5,1.6-0.7,2.7-0.8C14-157.5,15.1-157.5,16-157.3z"/>
<path d="M17.7-102.1c1-0.2,1.9-0.6,2.7-1c-0.3,1-1,1.7-1.7,2.3c0.9,0,1.5-0.4,2.3-0.5c-0.5,0.9-1.4,1.5-2.1,2.3
	c0,6.8-4.6,12.2-11,12.7c-2.9,0.2-5.6-0.5-7.8-1.8c2.4,0.1,4.7-0.7,6.2-1.8c-2-0.3-3.4-1.3-4-3.1c0.6,0.1,1.1,0,1.7,0
	C2.3-94,0.9-95,0.8-97.5c0.6,0.2,1,0.4,1.7,0.5c-1.2-0.9-2.4-3.7-1.2-5.7c2.2,2.2,4.6,4.2,8.8,4.4C9.4-102.9,15-105,17.7-102.1z"/>
<g>
	<g>
		<path d="M11.7-41.1c-0.7-0.6-2.2-1.3-2.3-2.2c-0.2-1.4,1.3-1.9,2-2.7c0.5-0.6,1.1-1.7,1.1-2.8c0-1.6-0.8-2.7-1.8-3.6
			c1.7,0.2,2.4-0.6,3.3-1.1c-2.4,0.1-4.7-0.1-6.9,0.1c-3.4,0.3-6,2-5.7,5.5c0.2,2.5,2.5,4.3,5.5,4c-0.7,1,0.1,2.3,0.5,2.9
			C3.9-40.8,0.3-40,0-36.8c-0.3,3,2.6,4.2,5.3,4.3c2.7,0.2,5.3-0.7,6.7-2c0.6-0.6,1.3-1.6,1.4-2.6C13.6-39.1,12.6-40.3,11.7-41.1z
			 M6.2-52.4c0.5-0.1,1.2,0.1,1.6,0.3c2.1,1.2,3.5,7-0.1,7.4C4-44.2,2.1-52,6.2-52.4z M2.9-35.6c-0.3-0.5-0.6-1.4-0.2-2.3
			c0.6-1.7,3.1-2.3,5.8-2.3c1.4,1.2,3.1,1.6,3.1,3.6C11.6-32.9,4.4-32.9,2.9-35.6z M18.2-44.2V-47h-1.4v2.8H14v1.4
			c0.9,0,2-0.1,2.8,0.1v2.7h1.4v-2.8H21v-1.4H18.2z"/>
	</g>
</g>
<g>
	<g>
		<path d="M19.3,5c0.4-1.7-0.3-3.7-0.7-5c-1.6,0.2-2.9,0.9-4.1,1.6c-0.4,0.2-0.9,0.7-1.2,0.7c-0.4,0-0.8-0.2-1.3-0.2
			c-1.6-0.1-3,0-4.3,0.2c-1.5-1-3-2-5.2-2.3C2.4,0,2.4,0.1,2.4,0.1c-0.5,1.3-1,3.1-0.7,4.9C0.8,6.2,0.1,7.3,0,9
			c-0.2,3.2,0.8,5.7,2.6,7.1c1.8,1.5,4.9,1.8,7.9,1.8c3.1,0,5.9-0.3,7.7-1.7C20,14.9,21,12.6,21,9.5C21,7.5,20.2,6.2,19.3,5z
			 M17.2,15.3c-1.3,1.3-4,1.5-6.4,1.6c-2.9,0.1-6.3-0.3-7.3-2c-0.5-0.8-0.8-2.4-0.5-3.7c0.4-1.4,1.5-2.2,3.2-2.4
			C7.7,8.5,9.2,8.9,11,8.8c0.8,0,1.6-0.1,2.4-0.1c0.9,0,2-0.1,2.7,0.2C18.3,9.8,19,13.4,17.2,15.3z M6.7,10.4
			c-1.7,0.2-1.7,3.5-0.3,4C8.8,15.3,9,10.1,6.7,10.4z M14,10.4c-1.7,0.2-1.7,3.4-0.3,4C16,15.4,16.3,10.1,14,10.4z"/>
	</g>
</g>
<g>
	<g>
		<path d="M17.7,101.5c-0.5-0.3-1.2,0.2-1.9,0.2c0.5,3,1,6.1,1.5,9.1c0.6-0.1,1.1-0.3,1.8-0.3C18.7,107.2,18,104.5,17.7,101.5z
			 M10.6,104.4c1.6,2.4,3.2,4.9,4.7,7.4c0.8-0.1,0.9-0.8,1.6-0.9c-1.5-2.6-3.2-5-4.7-7.5C11.4,103.4,11.1,104,10.6,104.4z
			 M15.2,112.1c-2.5-1.5-4.8-3.3-7.5-4.5c-0.2,0.7-0.7,0.9-0.7,1.7c2.5,1.4,4.9,3.1,7.4,4.5C14.4,113.1,14.9,112.7,15.2,112.1z
			 M14,114.3c-2.7-0.8-5.5-1.6-8.3-2.4c-0.1,0.7-0.4,1.2-0.4,1.9c2.8,0.8,5.5,1.7,8.4,2.4C13.6,115.4,14,115.1,14,114.3z
			 M14.6,122.8H3.5v-7.8H2.2c-0.3,2.8,0,6.3-0.1,9.4h14.2v-9.4h-1.5C14.6,117.5,14.9,120.5,14.6,122.8z M4.8,118.1
			c2.9,0.1,5.6,0.5,8.4,0.8c0.2-0.5,0.2-1.4,0.3-2c-2.9-0.2-5.6-0.6-8.6-0.8C4.7,116.5,4.9,117.4,4.8,118.1z M13.2,119.3H4.7v2h8.6
			V119.3z"/>
	</g>
</g>
<g>
	<g>
		<path d="M10.5,50.9H6.2c-3.1,0-5.7,2.6-5.7,5.7v4.3h4.4v-4.3c0-0.7,0.6-1.3,1.3-1.3h4.3V50.9z M16.1,60.9v4.3
			c0,0.7-0.6,1.3-1.3,1.3h-4.3v4.4h4.3c3.1,0,5.7-2.6,5.7-5.7v-4.3H16.1z"/>
	</g>
</g>
<g>
	<g>
		<path d="M18.2,167.2c0.5,0.2,1.1,0.4,1.8,0.4c0.7-0.8,0.8-1.8,0.9-2.9c0.1-2.9-1.2-5.5-2.9-7.2c-1.6-1.6-4-2.6-6.3-2.7
			c-0.2,0-0.4,0-0.6,0c-1.2,0.2-2.5,0.3-3.3,1c0.8,0.2,1.4-0.1,2.1-0.3c2.9-0.5,5.7,0.5,7.4,2.1c1.7,1.7,3.5,5.3,1.9,8.2
			c0.4,0.1,0.3-0.6,0.6-0.5c0,1.2-2.3,1.5-2.3,0.1c-0.4-0.1-0.8-0.1-1.1-0.3c0.6,2.2-0.7,3.6-2.7,3.4c-2.3-0.2-4.9-2.6-4.8-5.4
			c0-1.7,1-2.9,3-2.9c0.9,0,1.3,0.3,2,0.6c-0.3-0.9,0.7-1.3,1.4-0.9c-0.1-0.5-0.4-0.8-0.9-0.9c-0.4-0.1-0.9,0.1-1.1-0.2
			c0.2-0.3,0.6,0,0.9-0.2c-1.7-1.3-3.8-2.5-6.7-2.7c-1.7-0.1-2.9,0.1-4.5,0.4c-0.7,0.1-2.1,0.4-2,1c0,0.4,0.9,0.8,1.1,1
			c0.6,0.6,1.2,1.5,1.5,2.5c0.2,0.7,0.7,2.6,1.5,2.5c0.6,0,0.8-1.1,1.2-1.5c0.3-0.3,0.6-0.2,1-0.6c-0.1-0.6-0.7-0.5-0.9-1
			c0.6,0.1,1.3,0.4,1.5,1.1c-0.2,0.2-0.5,0.3-0.8,0.5c0.4,0.6,0.7,1.5,1.2,1.7c0.1-0.4,0-1,0.1-1.3c0.1,3.6,1.7,5.2,4.1,6.3
			c0.8,0.4,2.5,0.8,2.6,1.7c0.1,0.8-0.8,1.7-1.4,2.1c-3.4,2.1-8-0.2-10-2.3c-1.6-1.6-2.9-3.8-3-6.6c-0.1-1.2,0.1-2.2,0.3-3.1
			c0.1-0.4,0.6-1.1,0.1-1.5c-0.6,0.2-0.7,1-0.8,1.5c-0.2,0.7-0.3,1.4-0.3,2.1c-0.3,7.1,4.4,11.9,10.8,12.2c1.5,0.1,2.8-0.3,3.9-0.8
			c0.9-0.4,2.1-1.1,2.5-2.3c0.2-0.5,0.2-1.6,0-2c-0.2-0.3-0.7-0.5-0.6-1c1,0.7,2,2,1.4,3.8c1.5,0.4,2-1.7,1.5-2.8
			c-0.5-0.9-1.7-1.1-1.9-1.7c0.7,0.5,1.8,0.6,2.3,1.3c0.2,0.2,0.2,0.5,0.5,0.7c0.4-0.2,0.6-0.5,0.5-1
			C20.7,167.8,18.7,167.9,18.2,167.2z M11.1,159.2c-0.4,0.4-1,0.4-1.4,0.7c-0.4,0.3-0.4,1-0.9,1.1C9.1,159.9,10.1,159.1,11.1,159.2z
			 M17.7,164.8c0.2-0.2,0.2-0.8,0.1-1.3c-0.2-1.7-1.7-3.7-3.4-3.5c-0.6,0.8,0.1,1.3,0.5,1.7c0.8,0.8,1.2,1.7,1.5,2.9
			C16.7,164.9,17.4,165.1,17.7,164.8z M17.1,162.8c-0.7-0.2-1.2-0.9-1.2-1.7C16.3,160.6,17.4,162.1,17.1,162.8z M11.5,160.7
			c-1,0.1-1.8,0.7-2,1.4c-1.1,2.9,2.2,6,4.5,5.9c0.6,0,1.3-0.3,1.7-0.8c1.2-1.4,0-4.4-0.8-5.3C14.3,161.3,12.9,160.5,11.5,160.7z
			 M13.4,165.1c-1.1-0.1-2.2-2.5-0.8-3c0.6-0.2,1.5,0.2,1.8,0.9C14.8,163.9,14.4,165.2,13.4,165.1z"/>
	</g>
</g>
<g>
	<g>
		<path d="M1.2,210.1c3.1,2.6,6.2,5.3,9.3,7.7c3.1-2.5,6.2-5.2,9.2-7.7c0.1-0.1,0.3-0.2,0.2-0.2c-5.3-0.1-11,0-16.4,0
			c-0.8,0-1.6-0.1-2.4,0c0,0-0.1,0-0.1,0C0.9,209.9,1.3,210.1,1.2,210.1z M1.8,212.1c-0.6-0.5-1.1-1-1.7-1.4c0,0.1,0,0.2,0,0.3v11.7
			c0,0.1,0.1,0.2,0.1,0.2c2.3-2.1,4.6-4.3,6.8-6.5C5.2,215,3.5,213.5,1.8,212.1z M20.9,213.7c0-0.9,0-2.3,0-3.1
			c-2.3,1.8-4.5,3.8-6.8,5.7c2.2,2.1,4.4,4.3,6.6,6.3c0.1,0.1,0.2,0.2,0.2,0.1C20.9,219.9,20.9,216.8,20.9,213.7z M19.2,222.9
			c-0.3-0.3-0.6-0.5-0.8-0.8c-1.5-1.5-3.2-3-4.7-4.5c-0.1-0.1-0.4-0.4-0.4-0.4c0,0-0.2,0.2-0.3,0.3c-0.8,0.6-1.6,1.3-2.3,1.9
			c-0.9-0.7-1.7-1.4-2.6-2.1c-1.1,1-2.3,2.2-3.5,3.3c-1.1,1-2.1,2.1-3.2,3c0,0-0.2,0.1-0.1,0.2c6.2,0.1,12.7,0.1,18.9,0
			C19.7,223.4,19.4,223.1,19.2,222.9z"/>
	</g>
</g>
</svg>
