<?xml version="1.0" encoding="utf-8"?>
<!-- Generator: Adobe Illustrator 18.0.0, SVG Export Plug-In . SVG Version: 6.00 Build 0)  -->
<!DOCTYPE svg PUBLIC "-//W3C//DTD SVG 1.1//EN" "http://www.w3.org/Graphics/SVG/1.1/DTD/svg11.dtd">
<svg version="1.1" id="Layer_1" xmlns="http://www.w3.org/2000/svg" xmlns:xlink="http://www.w3.org/1999/xlink" x="0px" y="0px"
	 viewBox="0 0 21 21" enable-background="new 0 0 21 21" xml:space="preserve">
<path d="M16-103.8c0,1.1,0,2.3,0,3.4c-0.6-0.1-1.3-0.1-2-0.1c-0.6,0-1.3,0.1-1.6,0.5c-0.3,0.4-0.2,1.1-0.2,1.7c0,0.7,0,1.3,0,1.9
	c1.2,0,2.4,0,3.7,0c-0.2,1.2-0.4,2.4-0.6,3.7c-1,0-2.1,0-3,0c0,3.2,0,6.5,0,9.7c-1.4,0-2.7,0-4.1,0c0-3.2,0-6.5,0-9.7
	c-1,0-2.1,0-3.1,0c0-1.2,0-2.4,0-3.7c1.1,0,2.2,0,3.3,0c-0.1-0.9-0.1-1.9-0.1-2.8c0-0.9,0.1-1.8,0.4-2.4c0.4-0.7,0.9-1.3,1.6-1.8
	c0.7-0.5,1.6-0.7,2.7-0.8C14-104,15.1-104,16-103.8z"/>
<path d="M17.7-48.6c1-0.2,1.9-0.6,2.7-1c-0.3,1-1,1.7-1.7,2.3c0.9,0,1.5-0.4,2.3-0.5c-0.5,0.9-1.4,1.5-2.1,2.3
	c0,6.8-4.6,12.2-11,12.7c-2.9,0.2-5.6-0.5-7.8-1.8c2.4,0.1,4.7-0.7,6.2-1.8c-2-0.3-3.4-1.3-4-3.1c0.6,0.1,1.1,0,1.7,0
	c-1.7-0.8-3.2-1.9-3.3-4.3c0.6,0.2,1,0.4,1.7,0.5c-1.2-0.9-2.4-3.7-1.2-5.7C3.5-47,6-45,10.2-44.8C9.3-49.4,15-51.5,17.7-48.6z"/>
<g>
	<g>
		<path d="M11.7,12.4c-0.7-0.6-2.2-1.3-2.3-2.2c-0.2-1.4,1.3-1.9,2-2.7c0.5-0.6,1.1-1.7,1.1-2.8c0-1.6-0.8-2.7-1.8-3.6
			C12.4,1.4,13.1,0.6,14,0c-2.4,0.1-4.7-0.1-6.9,0.1c-3.4,0.3-6,2-5.7,5.5c0.2,2.5,2.5,4.3,5.5,4c-0.7,1,0.1,2.3,0.5,2.9
			c-3.6,0.2-7.1,1.1-7.4,4.3c-0.3,3,2.6,4.2,5.3,4.3c2.7,0.2,5.3-0.7,6.7-2c0.6-0.6,1.3-1.6,1.4-2.6C13.6,14.3,12.6,13.2,11.7,12.4z
			 M6.2,1.1C6.7,1,7.4,1.2,7.8,1.4c2.1,1.2,3.5,7-0.1,7.4C4,9.3,2.1,1.5,6.2,1.1z M2.9,17.9c-0.3-0.5-0.6-1.4-0.2-2.3
			c0.6-1.7,3.1-2.3,5.8-2.3c1.4,1.2,3.1,1.6,3.1,3.6C11.6,20.6,4.4,20.6,2.9,17.9z M18.2,9.3V6.5h-1.4v2.8H14v1.4
			c0.9,0,2-0.1,2.8,0.1v2.7h1.4v-2.8H21V9.3H18.2z"/>
	</g>
</g>
<g>
	<g>
		<path d="M19.3,58.5c0.4-1.7-0.3-3.7-0.7-5c-1.6,0.2-2.9,0.9-4.1,1.6c-0.4,0.2-0.9,0.7-1.2,0.7c-0.4,0-0.8-0.2-1.3-0.2
			c-1.6-0.1-3,0-4.3,0.2c-1.5-1-3-2-5.2-2.3c-0.1,0-0.1,0.1-0.1,0.1c-0.5,1.3-1,3.1-0.7,4.9c-0.9,1.1-1.6,2.2-1.7,4
			c-0.2,3.2,0.8,5.7,2.6,7.1c1.8,1.5,4.9,1.8,7.9,1.8c3.1,0,5.9-0.3,7.7-1.7C20,68.4,21,66.1,21,63C21,61,20.2,59.7,19.3,58.5z
			 M17.2,68.7c-1.3,1.3-4,1.5-6.4,1.6c-2.9,0.1-6.3-0.3-7.3-2c-0.5-0.8-0.8-2.4-0.5-3.7c0.4-1.4,1.5-2.2,3.2-2.4
			c1.6-0.1,3.1,0.2,4.9,0.1c0.8,0,1.6-0.1,2.4-0.1c0.9,0,2-0.1,2.7,0.2C18.3,63.3,19,66.9,17.2,68.7z M6.7,63.9
			c-1.7,0.2-1.7,3.5-0.3,4C8.8,68.8,9,63.6,6.7,63.9z M13.9,63.9c-1.7,0.2-1.7,3.4-0.3,4C16,68.9,16.3,63.6,13.9,63.9z"/>
	</g>
</g>
<g>
	<g>
		<path d="M17.7,155c-0.5-0.3-1.2,0.2-1.9,0.2c0.5,3,1,6.1,1.5,9.1c0.6-0.1,1.1-0.3,1.8-0.3C18.7,160.7,18,158,17.7,155z
			 M10.6,157.9c1.6,2.4,3.2,4.9,4.7,7.4c0.8-0.1,0.9-0.8,1.6-0.9c-1.5-2.6-3.2-5-4.7-7.5C11.4,156.9,11,157.5,10.6,157.9z
			 M15.2,165.6c-2.5-1.5-4.8-3.3-7.5-4.5c-0.2,0.7-0.7,0.9-0.7,1.7c2.5,1.4,4.9,3.1,7.4,4.5C14.4,166.6,14.9,166.2,15.2,165.6z
			 M14,167.8c-2.7-0.8-5.5-1.6-8.3-2.4c-0.1,0.7-0.4,1.2-0.4,1.9c2.8,0.8,5.5,1.7,8.4,2.4C13.6,168.9,14,168.6,14,167.8z
			 M14.6,176.3H3.5v-7.8H2.2c-0.3,2.8,0,6.3-0.1,9.4h14.2v-9.4h-1.5C14.6,171,14.9,174,14.6,176.3z M4.8,171.6
			c2.9,0.1,5.6,0.5,8.4,0.8c0.2-0.5,0.2-1.4,0.3-2c-2.9-0.2-5.6-0.6-8.6-0.8C4.7,170,4.9,170.9,4.8,171.6z M13.2,172.8H4.7v2h8.6
			V172.8z"/>
	</g>
</g>
<g>
	<g>
		<path d="M10.5,104.4H6.2c-3.1,0-5.7,2.6-5.7,5.7v4.3h4.4v-4.3c0-0.7,0.6-1.3,1.3-1.3h4.3V104.4z M16.1,114.4v4.3
			c0,0.7-0.6,1.3-1.3,1.3h-4.3v4.4h4.3c3.1,0,5.7-2.6,5.7-5.7v-4.3H16.1z"/>
	</g>
</g>
<g>
	<g>
		<path d="M18.2,220.6c0.5,0.2,1.1,0.4,1.8,0.4c0.7-0.8,0.8-1.8,0.9-2.9c0.1-2.9-1.2-5.5-2.9-7.2c-1.6-1.6-4-2.6-6.3-2.7
			c-0.2,0-0.4,0-0.6,0c-1.2,0.2-2.5,0.3-3.3,1c0.8,0.2,1.4-0.1,2.1-0.3c2.9-0.5,5.7,0.5,7.4,2.1c1.7,1.7,3.5,5.3,1.9,8.2
			c0.4,0.1,0.3-0.6,0.6-0.5c0,1.2-2.3,1.5-2.3,0.1c-0.4-0.1-0.8-0.1-1.1-0.3c0.6,2.2-0.7,3.6-2.7,3.4c-2.3-0.2-4.9-2.6-4.8-5.4
			c0-1.7,1-2.9,3-2.9c0.9,0,1.3,0.3,2,0.6c-0.3-0.9,0.7-1.3,1.4-0.9c-0.1-0.5-0.4-0.8-0.9-0.9c-0.4-0.1-0.9,0.1-1.1-0.2
			c0.2-0.3,0.6,0,0.9-0.2c-1.7-1.3-3.8-2.5-6.7-2.7c-1.7-0.1-2.9,0.1-4.5,0.4c-0.7,0.1-2.1,0.4-2,1c0,0.4,0.9,0.8,1.1,1
			c0.6,0.6,1.2,1.5,1.5,2.5c0.2,0.7,0.7,2.6,1.5,2.5c0.6,0,0.8-1.1,1.2-1.5c0.3-0.3,0.6-0.2,1-0.6c-0.1-0.6-0.7-0.5-0.9-1
			c0.6,0.1,1.3,0.4,1.5,1.1c-0.2,0.2-0.5,0.3-0.8,0.5c0.4,0.6,0.7,1.5,1.2,1.7c0.1-0.4,0-1,0.1-1.3c0.1,3.6,1.7,5.2,4.1,6.3
			c0.8,0.4,2.5,0.8,2.6,1.7c0.1,0.8-0.8,1.7-1.4,2.1c-3.4,2.1-8-0.2-10-2.3c-1.6-1.6-2.9-3.8-3-6.6c-0.1-1.2,0.1-2.2,0.3-3.1
			c0.1-0.4,0.6-1.1,0.1-1.5c-0.6,0.2-0.7,1-0.8,1.5c-0.2,0.7-0.3,1.4-0.3,2.1c-0.3,7.1,4.4,11.9,10.8,12.2c1.5,0.1,2.8-0.3,3.9-0.8
			c0.9-0.4,2.1-1.1,2.5-2.3c0.2-0.5,0.2-1.6,0-2c-0.2-0.3-0.7-0.5-0.6-1c1,0.7,2,2,1.4,3.8c1.5,0.4,2-1.7,1.5-2.8
			c-0.5-0.9-1.7-1.1-1.9-1.7c0.7,0.5,1.8,0.6,2.3,1.3c0.2,0.2,0.2,0.5,0.5,0.7c0.4-0.2,0.6-0.5,0.5-1
			C20.7,221.3,18.7,221.4,18.2,220.6z M11.1,212.7c-0.4,0.4-1,0.4-1.4,0.7c-0.4,0.3-0.4,1-0.9,1.1C9.1,213.4,10,212.6,11.1,212.7z
			 M17.7,218.3c0.2-0.2,0.2-0.8,0.1-1.3c-0.2-1.7-1.7-3.7-3.4-3.5c-0.6,0.8,0.1,1.3,0.5,1.7c0.8,0.8,1.2,1.7,1.5,2.9
			C16.7,218.4,17.4,218.6,17.7,218.3z M17,216.3c-0.7-0.2-1.2-0.9-1.2-1.7C16.3,214.1,17.4,215.6,17,216.3z M11.5,214.2
			c-1,0.1-1.8,0.7-2,1.4c-1.1,2.9,2.2,6,4.5,5.9c0.6,0,1.3-0.3,1.7-0.8c1.2-1.4,0-4.4-0.8-5.3C14.3,214.8,12.9,214,11.5,214.2z
			 M13.4,218.6c-1.1-0.1-2.2-2.5-0.8-3c0.6-0.2,1.5,0.2,1.8,0.9C14.8,217.4,14.4,218.7,13.4,218.6z"/>
	</g>
</g>
<g>
	<g>
		<path d="M1.2,263.6c3.1,2.6,6.2,5.3,9.3,7.7c3.1-2.5,6.2-5.2,9.2-7.7c0.1-0.1,0.3-0.2,0.2-0.2c-5.3-0.1-11,0-16.4,0
			c-0.8,0-1.6-0.1-2.4,0c0,0-0.1,0-0.1,0C0.9,263.4,1.3,263.6,1.2,263.6z M1.8,265.6c-0.6-0.5-1.1-1-1.7-1.4c0,0.1,0,0.2,0,0.3v11.7
			c0,0.1,0.1,0.2,0.1,0.2c2.3-2.1,4.6-4.3,6.8-6.5C5.2,268.5,3.5,267,1.8,265.6z M20.9,267.2c0-0.9,0-2.3,0-3.1
			c-2.3,1.8-4.5,3.8-6.8,5.7c2.2,2.1,4.4,4.3,6.6,6.3c0.1,0.1,0.2,0.2,0.2,0.1C20.9,273.4,20.9,270.3,20.9,267.2z M19.1,276.4
			c-0.3-0.3-0.6-0.5-0.8-0.8c-1.5-1.5-3.2-3-4.7-4.5c-0.1-0.1-0.4-0.4-0.4-0.4c0,0-0.2,0.2-0.3,0.3c-0.8,0.6-1.6,1.3-2.3,1.9
			c-0.9-0.7-1.7-1.4-2.6-2.1c-1.1,1-2.3,2.2-3.5,3.3c-1.1,1-2.1,2.1-3.2,3c0,0-0.2,0.1-0.1,0.2c6.2,0.1,12.7,0.1,18.9,0
			C19.7,276.9,19.4,276.6,19.1,276.4z"/>
	</g>
</g>
</svg>
