<?xml version="1.0" encoding="utf-8"?>
<!-- Generator: Adobe Illustrator 16.2.1, SVG Export Plug-In . SVG Version: 6.00 Build 0)  -->
<!DOCTYPE svg PUBLIC "-//W3C//DTD SVG 1.1//EN" "http://www.w3.org/Graphics/SVG/1.1/DTD/svg11.dtd">
<svg version="1.1" xmlns="http://www.w3.org/2000/svg" xmlns:xlink="http://www.w3.org/1999/xlink" x="0px" y="0px" width="30px"
	 height="30px" viewBox="0 0 30 30" enable-background="new 0 0 30 30" xml:space="preserve">
<g id="_x31_2_col">
</g>
<g id="_x31_6_col" display="none">
</g>
<g id="_x39_col" display="none">
</g>
<g id="Content">
	<rect y="-0.791" fill="#000" fill-opacity="0" width="30" height="31"/>
	<g>
		<path fill="#FFFFFF" d="M7.101,9.084c-1.594,0-2.639-1.096-2.639-2.465c0-1.394,1.07-2.465,2.715-2.465
			c1.617,0,2.639,1.071,2.662,2.465c0,1.369-1.045,2.465-2.713,2.465H7.101z M9.39,11.324v13.893h-4.48V11.324H9.39z M16.562,17.15
			c0-1.793,1.145-2.689,2.49-2.689c1.344,0,2.438,0.896,2.438,3.137v7.619h4.484V17.15c0-4.033-2.242-6.274-5.377-6.274
			c-1.795,0-3.139,1.021-4.035,2.366l-0.15-1.918h-4.408c0,0.474,0.076,3.137,0.076,3.137v10.756h4.482V17.15z"/>
	</g>
</g>
</svg>
