<?xml version="1.0" encoding="utf-8"?>
<!-- Generator: Adobe Illustrator 18.0.0, SVG Export Plug-In . SVG Version: 6.00 Build 0)  -->
<!DOCTYPE svg PUBLIC "-//W3C//DTD SVG 1.1//EN" "http://www.w3.org/Graphics/SVG/1.1/DTD/svg11.dtd">
<svg version="1.1" id="Layer_1" xmlns="http://www.w3.org/2000/svg" xmlns:xlink="http://www.w3.org/1999/xlink" x="0px" y="0px"
	 viewBox="0 0 17 23" enable-background="new 0 0 17 23" xml:space="preserve">
<path d="M14-258.6c0,1.1,0,2.3,0,3.4c-0.6-0.1-1.3-0.1-2-0.1c-0.6,0-1.3,0.1-1.6,0.5c-0.3,0.4-0.2,1.1-0.2,1.7c0,0.7,0,1.3,0,1.9
	c1.2,0,2.4,0,3.7,0c-0.2,1.2-0.4,2.4-0.6,3.7c-1,0-2.1,0-3,0c0,3.2,0,6.5,0,9.7c-1.4,0-2.7,0-4.1,0c0-3.2,0-6.5,0-9.7
	c-1,0-2.1,0-3.1,0c0-1.2,0-2.4,0-3.7c1.1,0,2.2,0,3.3,0c-0.1-0.9-0.1-1.9-0.1-2.8c0-0.9,0.1-1.8,0.4-2.4c0.4-0.7,0.9-1.3,1.6-1.8
	c0.7-0.5,1.6-0.7,2.7-0.8C12-258.9,13.1-258.8,14-258.6z"/>
<path d="M15.7-203.5c1-0.2,1.9-0.6,2.7-1c-0.3,1-1,1.7-1.7,2.3c0.9,0,1.5-0.4,2.3-0.5c-0.5,0.9-1.4,1.5-2.1,2.3
	c0,6.8-4.6,12.2-11,12.7c-2.9,0.2-5.6-0.5-7.8-1.8c2.4,0.1,4.7-0.7,6.2-1.8c-2-0.3-3.4-1.3-4-3.1c0.6,0.1,1.1,0,1.7,0
	c-1.7-0.8-3.2-1.9-3.3-4.3c0.6,0.2,1,0.4,1.7,0.5c-1.2-0.9-2.4-3.7-1.2-5.7c2.2,2.2,4.6,4.2,8.8,4.4
	C7.4-204.2,13.1-206.4,15.7-203.5z"/>
<g>
	<g>
		<path d="M9.7-142.4c-0.7-0.6-2.2-1.3-2.3-2.2c-0.2-1.4,1.3-1.9,2-2.7c0.5-0.6,1.1-1.7,1.1-2.8c0-1.6-0.8-2.7-1.8-3.6
			c1.7,0.2,2.4-0.6,3.3-1.1c-2.4,0.1-4.7-0.1-6.9,0.1c-3.4,0.3-6,2-5.7,5.5c0.2,2.5,2.5,4.3,5.5,4c-0.7,1,0.1,2.3,0.5,2.9
			c-3.6,0.2-7.1,1.1-7.4,4.3c-0.3,3,2.6,4.2,5.3,4.3c2.7,0.2,5.3-0.7,6.7-2c0.6-0.6,1.3-1.6,1.4-2.6
			C11.6-140.5,10.6-141.6,9.7-142.4z M4.2-153.8c0.5-0.1,1.2,0.1,1.6,0.3c2.1,1.2,3.5,7-0.1,7.4C2-145.5,0.1-153.3,4.2-153.8z
			 M0.9-137c-0.3-0.5-0.6-1.4-0.2-2.3c0.6-1.7,3.1-2.3,5.8-2.3c1.4,1.2,3.1,1.6,3.1,3.6C9.6-134.2,2.4-134.3,0.9-137z M16.2-145.6
			v-2.8h-1.4v2.8H12v1.4c0.9,0,2-0.1,2.8,0.1v2.7h1.4v-2.8H19v-1.4H16.2z"/>
	</g>
</g>
<g>
	<g>
		<path d="M17.3-96.3c0.4-1.7-0.3-3.7-0.7-5c-1.6,0.2-2.9,0.9-4.1,1.6c-0.4,0.2-0.9,0.7-1.2,0.7c-0.4,0-0.8-0.2-1.3-0.2
			c-1.6-0.1-3,0-4.3,0.2c-1.5-1-3-2-5.2-2.3c-0.1,0-0.1,0.1-0.1,0.1c-0.5,1.3-1,3.1-0.7,4.9c-0.9,1.1-1.6,2.2-1.7,4
			c-0.2,3.2,0.8,5.7,2.6,7.1c1.8,1.5,4.9,1.8,7.9,1.8c3.1,0,5.9-0.3,7.7-1.7c1.8-1.3,2.7-3.6,2.7-6.7C19-93.9,18.2-95.2,17.3-96.3z
			 M15.2-86.1c-1.3,1.3-4,1.5-6.4,1.6c-2.9,0.1-6.3-0.3-7.3-2c-0.5-0.8-0.8-2.4-0.5-3.7c0.4-1.4,1.5-2.2,3.2-2.4
			c1.6-0.1,3.1,0.2,4.9,0.1c0.8,0,1.6-0.1,2.4-0.1c0.9,0,2-0.1,2.7,0.2C16.3-91.5,17-88,15.2-86.1z M4.8-90.9
			c-1.7,0.2-1.7,3.5-0.3,4C6.8-86,7.1-91.2,4.8-90.9z M12-90.9c-1.7,0.2-1.7,3.4-0.3,4C14-86,14.3-91.3,12-90.9z"/>
	</g>
</g>
<g>
	<g>
		<path d="M15.7,0.1c-0.5-0.3-1.2,0.2-1.9,0.2c0.5,3,1,6.1,1.5,9.1C15.8,9.2,16.3,9,17,9C16.7,5.9,16,3.2,15.7,0.1z M8.6,3.1
			c1.6,2.4,3.2,4.9,4.7,7.4c0.8-0.1,0.9-0.8,1.6-0.9c-1.5-2.6-3.2-5-4.7-7.5C9.4,2.1,9.1,2.6,8.6,3.1z M13.2,10.8
			c-2.5-1.5-4.8-3.3-7.5-4.5C5.5,6.9,4.9,7.1,4.9,7.9c2.5,1.4,4.9,3.1,7.4,4.5C12.4,11.8,12.9,11.3,13.2,10.8z M12,13
			c-2.7-0.8-5.5-1.6-8.3-2.4c-0.1,0.7-0.4,1.2-0.4,1.9c2.8,0.8,5.5,1.7,8.4,2.4C11.6,14.1,12,13.7,12,13z M12.6,21.4H1.5v-7.8H0.2
			c-0.3,2.8,0,6.3-0.1,9.4h14.2v-9.4h-1.5C12.6,16.1,12.9,19.1,12.6,21.4z M2.8,16.7c2.9,0.1,5.6,0.5,8.4,0.8c0.2-0.5,0.2-1.4,0.3-2
			c-2.9-0.2-5.6-0.6-8.6-0.8C2.7,15.1,2.9,16,2.8,16.7z M11.3,18H2.7v2h8.6V18z"/>
	</g>
</g>
<g>
	<g>
		<path d="M8.5-50.5H4.2c-3.1,0-5.7,2.6-5.7,5.7v4.3h4.4v-4.3c0-0.7,0.6-1.3,1.3-1.3h4.3V-50.5z M14.1-40.5v4.3
			c0,0.7-0.6,1.3-1.3,1.3H8.5v4.4h4.3c3.1,0,5.7-2.6,5.7-5.7v-4.3H14.1z"/>
	</g>
</g>
<g>
	<g>
		<path d="M16.2,65.8c0.5,0.2,1.1,0.4,1.8,0.4c0.7-0.8,0.8-1.8,0.9-2.9c0.1-2.9-1.2-5.5-2.9-7.2c-1.6-1.6-4-2.6-6.3-2.7
			c-0.2,0-0.4,0-0.6,0c-1.2,0.2-2.5,0.3-3.3,1c0.8,0.2,1.4-0.1,2.1-0.3c2.9-0.5,5.7,0.5,7.4,2.1c1.7,1.7,3.5,5.3,1.9,8.2
			c0.4,0.1,0.3-0.6,0.6-0.5c0,1.2-2.3,1.5-2.3,0.1c-0.4-0.1-0.8-0.1-1.1-0.3c0.6,2.2-0.7,3.6-2.7,3.4C9.6,66.9,7,64.6,7,61.8
			c0-1.7,1-2.9,3-2.9c0.9,0,1.3,0.3,2,0.6c-0.3-0.9,0.7-1.3,1.4-0.9c-0.1-0.5-0.4-0.8-0.9-0.9c-0.4-0.1-0.9,0.1-1.1-0.2
			c0.2-0.3,0.6,0,0.9-0.2c-1.7-1.3-3.8-2.5-6.7-2.7c-1.7-0.1-2.9,0.1-4.5,0.4c-0.7,0.1-2.1,0.4-2,1c0,0.4,0.9,0.8,1.1,1
			c0.6,0.6,1.2,1.5,1.5,2.5c0.2,0.7,0.7,2.6,1.5,2.5c0.6,0,0.8-1.1,1.2-1.5c0.3-0.3,0.6-0.2,1-0.6c-0.1-0.6-0.7-0.5-0.9-1
			c0.6,0.1,1.3,0.4,1.5,1.1c-0.2,0.2-0.5,0.3-0.8,0.5C5.6,61.1,6,62,6.5,62.3c0.1-0.4,0-1,0.1-1.3c0.1,3.6,1.7,5.2,4.1,6.3
			c0.8,0.4,2.5,0.8,2.6,1.7c0.1,0.8-0.8,1.7-1.4,2.1c-3.4,2.1-8-0.2-10-2.3c-1.6-1.6-2.9-3.8-3-6.6C-1.2,61-1.1,60-0.9,59.1
			c0.1-0.4,0.6-1.1,0.1-1.5c-0.6,0.2-0.7,1-0.8,1.5c-0.2,0.7-0.3,1.4-0.3,2.1c-0.3,7.1,4.4,11.9,10.8,12.2c1.5,0.1,2.8-0.3,3.9-0.8
			c0.9-0.4,2.1-1.1,2.5-2.3c0.2-0.5,0.2-1.6,0-2c-0.2-0.3-0.7-0.5-0.6-1c1,0.7,2,2,1.4,3.8c1.5,0.4,2-1.7,1.5-2.8
			c-0.5-0.9-1.7-1.1-1.9-1.7c0.7,0.5,1.8,0.6,2.3,1.3c0.2,0.2,0.2,0.5,0.5,0.7c0.4-0.2,0.6-0.5,0.5-1C18.7,66.4,16.7,66.6,16.2,65.8
			z M9.1,57.8c-0.4,0.4-1,0.4-1.4,0.7c-0.4,0.3-0.4,1-0.9,1.1C7.1,58.6,8.1,57.7,9.1,57.8z M15.7,63.4c0.2-0.2,0.2-0.8,0.1-1.3
			c-0.2-1.7-1.7-3.7-3.4-3.5c-0.6,0.8,0.1,1.3,0.5,1.7c0.8,0.8,1.2,1.7,1.5,2.9C14.8,63.5,15.4,63.8,15.7,63.4z M15.1,61.5
			c-0.7-0.2-1.2-0.9-1.2-1.7C14.3,59.3,15.4,60.8,15.1,61.5z M9.5,59.3c-1,0.1-1.8,0.7-2,1.4c-1.1,2.9,2.2,6,4.5,5.9
			c0.6,0,1.3-0.3,1.7-0.8c1.2-1.4,0-4.4-0.8-5.3C12.4,59.9,10.9,59.1,9.5,59.3z M11.4,63.7c-1.1-0.1-2.2-2.5-0.8-3
			c0.6-0.2,1.5,0.2,1.8,0.9C12.8,62.6,12.5,63.8,11.4,63.7z"/>
	</g>
</g>
<g>
	<g>
		<path d="M-0.8,108.7c3.1,2.6,6.2,5.3,9.3,7.7c3.1-2.5,6.2-5.2,9.2-7.7c0.1-0.1,0.3-0.2,0.2-0.2c-5.3-0.1-11,0-16.4,0
			c-0.8,0-1.6-0.1-2.4,0c0,0-0.1,0-0.1,0C-1.1,108.5-0.7,108.8-0.8,108.7z M-0.2,110.7c-0.6-0.5-1.1-1-1.7-1.4c0,0.1,0,0.2,0,0.3
			v11.7c0,0.1,0.1,0.2,0.1,0.2c2.3-2.1,4.6-4.3,6.8-6.5C3.2,113.6,1.5,112.2-0.2,110.7z M18.9,112.4c0-0.9,0-2.3,0-3.1
			c-2.3,1.8-4.5,3.8-6.8,5.7c2.2,2.1,4.4,4.3,6.6,6.3c0.1,0.1,0.2,0.2,0.2,0.1C18.9,118.6,18.9,115.4,18.9,112.4z M17.2,121.5
			c-0.3-0.3-0.6-0.5-0.8-0.8c-1.5-1.5-3.2-3-4.7-4.5c-0.1-0.1-0.4-0.4-0.4-0.4c0,0-0.2,0.2-0.3,0.3c-0.8,0.6-1.6,1.3-2.3,1.9
			c-0.9-0.7-1.7-1.4-2.6-2.1c-1.1,1-2.3,2.2-3.5,3.3c-1.1,1-2.1,2.1-3.2,3c0,0-0.2,0.1-0.1,0.2c6.2,0.1,12.7,0.1,18.9,0
			C17.8,122,17.5,121.8,17.2,121.5z"/>
	</g>
</g>
</svg>
