<?xml version="1.0" encoding="utf-8"?>
<!-- Generator: Adobe Illustrator 18.0.0, SVG Export Plug-In . SVG Version: 6.00 Build 0)  -->
<!DOCTYPE svg PUBLIC "-//W3C//DTD SVG 1.1//EN" "http://www.w3.org/Graphics/SVG/1.1/DTD/svg11.dtd">
<svg version="1.1" id="Layer_1" xmlns="http://www.w3.org/2000/svg" xmlns:xlink="http://www.w3.org/1999/xlink" x="0px" y="0px"
	 viewBox="0 0 20.9 20" enable-background="new 0 0 20.9 20" xml:space="preserve">
<path d="M15.9-312.1c0,1.1,0,2.3,0,3.4c-0.6-0.1-1.3-0.1-2-0.1c-0.6,0-1.3,0.1-1.6,0.5c-0.3,0.4-0.2,1.1-0.2,1.7c0,0.7,0,1.3,0,1.9
	c1.2,0,2.4,0,3.7,0c-0.2,1.2-0.4,2.4-0.6,3.7c-1,0-2.1,0-3,0c0,3.2,0,6.5,0,9.7c-1.4,0-2.7,0-4.1,0c0-3.2,0-6.5,0-9.7
	c-1,0-2.1,0-3.1,0c0-1.2,0-2.4,0-3.7c1.1,0,2.2,0,3.3,0c-0.1-0.9-0.1-1.9-0.1-2.8c0-0.9,0.1-1.8,0.4-2.4c0.4-0.7,0.9-1.3,1.6-1.8
	c0.7-0.5,1.6-0.7,2.7-0.8C14-312.3,15.1-312.3,15.9-312.1z"/>
<path d="M17.6-256.9c1-0.2,1.9-0.6,2.7-1c-0.3,1-1,1.7-1.7,2.3c0.9,0,1.5-0.4,2.3-0.5c-0.5,0.9-1.4,1.5-2.1,2.3
	c0,6.8-4.6,12.2-11,12.7c-2.9,0.2-5.6-0.5-7.8-1.8c2.4,0.1,4.7-0.7,6.2-1.8c-2-0.3-3.4-1.3-4-3.1c0.6,0.1,1.1,0,1.7,0
	c-1.7-0.8-3.2-1.9-3.3-4.3c0.6,0.2,1,0.4,1.7,0.5c-1.2-0.9-2.4-3.7-1.2-5.7c2.2,2.2,4.6,4.2,8.8,4.4C9.3-257.7,15-259.8,17.6-256.9z
	"/>
<g>
	<g>
		<path d="M11.7-195.9c-0.7-0.6-2.2-1.3-2.3-2.2c-0.2-1.4,1.3-1.9,2-2.7c0.5-0.6,1.1-1.7,1.1-2.8c0-1.6-0.8-2.7-1.8-3.6
			c1.7,0.2,2.4-0.6,3.3-1.1c-2.4,0.1-4.7-0.1-6.9,0.1c-3.4,0.3-6,2-5.7,5.5c0.2,2.5,2.5,4.3,5.5,4c-0.7,1,0.1,2.3,0.5,2.9
			c-3.6,0.2-7.1,1.1-7.4,4.3c-0.3,3,2.6,4.2,5.3,4.3c2.7,0.2,5.3-0.7,6.7-2c0.6-0.6,1.3-1.6,1.4-2.6C13.6-194,12.6-195.1,11.7-195.9
			z M6.1-207.2c0.5-0.1,1.2,0.1,1.6,0.3c2.1,1.2,3.5,7-0.1,7.4C3.9-199,2.1-206.8,6.1-207.2z M2.8-190.4c-0.3-0.5-0.6-1.4-0.2-2.3
			c0.6-1.7,3.1-2.3,5.8-2.3c1.4,1.2,3.1,1.6,3.1,3.6C11.5-187.7,4.3-187.7,2.8-190.4z M18.2-199v-2.8h-1.4v2.8h-2.8v1.4
			c0.9,0,2-0.1,2.8,0.1v2.7h1.4v-2.8h2.8v-1.4H18.2z"/>
	</g>
</g>
<g>
	<g>
		<path d="M19.2-149.8c0.4-1.7-0.3-3.7-0.7-5c-1.6,0.2-2.9,0.9-4.1,1.6c-0.4,0.2-0.9,0.7-1.2,0.7c-0.4,0-0.8-0.2-1.3-0.2
			c-1.6-0.1-3,0-4.3,0.2c-1.5-1-3-2-5.2-2.3c-0.1,0-0.1,0.1-0.1,0.1c-0.5,1.3-1,3.1-0.7,4.9c-0.9,1.1-1.6,2.2-1.7,4
			c-0.2,3.2,0.8,5.7,2.6,7.1c1.8,1.5,4.9,1.8,7.9,1.8c3.1,0,5.9-0.3,7.7-1.7c1.8-1.3,2.7-3.6,2.7-6.7
			C20.9-147.3,20.2-148.6,19.2-149.8z M17.2-139.6c-1.3,1.3-4,1.5-6.4,1.6c-2.9,0.1-6.3-0.3-7.3-2c-0.5-0.8-0.8-2.4-0.5-3.7
			c0.4-1.4,1.5-2.2,3.2-2.4c1.6-0.1,3.1,0.2,4.9,0.1c0.8,0,1.6-0.1,2.4-0.1c0.9,0,2-0.1,2.7,0.2C18.3-145,18.9-141.4,17.2-139.6z
			 M6.7-144.4c-1.7,0.2-1.7,3.5-0.3,4C8.7-139.5,9-144.7,6.7-144.4z M13.9-144.4c-1.7,0.2-1.7,3.4-0.3,4
			C15.9-139.4,16.3-144.7,13.9-144.4z"/>
	</g>
</g>
<g>
	<g>
		<path d="M17.6-53.4c-0.5-0.3-1.2,0.2-1.9,0.2c0.5,3,1,6.1,1.5,9.1c0.6-0.1,1.1-0.3,1.8-0.3C18.7-47.6,18-50.3,17.6-53.4z
			 M10.5-50.4c1.6,2.4,3.2,4.9,4.7,7.4c0.8-0.1,0.9-0.8,1.6-0.9c-1.5-2.6-3.2-5-4.7-7.5C11.4-51.4,11-50.8,10.5-50.4z M15.1-42.7
			c-2.5-1.5-4.8-3.3-7.5-4.5c-0.2,0.7-0.7,0.9-0.7,1.7c2.5,1.4,4.9,3.1,7.4,4.5C14.4-41.7,14.8-42.1,15.1-42.7z M13.9-40.5
			c-2.7-0.8-5.5-1.6-8.3-2.4c-0.1,0.7-0.4,1.2-0.4,1.9c2.8,0.8,5.5,1.7,8.4,2.4C13.6-39.4,14-39.7,13.9-40.5z M14.5-32H3.4v-7.8H2.1
			c-0.3,2.8,0,6.3-0.1,9.4h14.2v-9.4h-1.5C14.6-37.3,14.9-34.3,14.5-32z M4.8-36.7c2.9,0.1,5.6,0.5,8.4,0.8c0.2-0.5,0.2-1.4,0.3-2
			c-2.9-0.2-5.6-0.6-8.6-0.8C4.6-38.3,4.8-37.4,4.8-36.7z M13.2-35.5H4.6v2h8.6V-35.5z"/>
	</g>
</g>
<g>
	<g>
		<path d="M10.4-103.9H6.1c-3.1,0-5.7,2.6-5.7,5.7v4.3h4.4v-4.3c0-0.7,0.6-1.3,1.3-1.3h4.3V-103.9z M16.1-93.9v4.3
			c0,0.7-0.6,1.3-1.3,1.3h-4.3v4.4h4.3c3.1,0,5.7-2.6,5.7-5.7v-4.3H16.1z"/>
	</g>
</g>
<g>
	<g>
		<path d="M18.2,12.3c0.5,0.2,1.1,0.4,1.8,0.4c0.7-0.8,0.8-1.8,0.9-2.9C21,7,19.7,4.4,18,2.7c-1.6-1.6-4-2.6-6.3-2.7
			c-0.2,0-0.4,0-0.6,0C9.9,0.2,8.7,0.3,7.9,1C8.7,1.2,9.3,0.9,10,0.7c2.9-0.5,5.7,0.5,7.4,2.1c1.7,1.7,3.5,5.3,1.9,8.2
			c0.4,0.1,0.3-0.6,0.6-0.5c0,1.2-2.3,1.5-2.3,0.1c-0.4-0.1-0.8-0.1-1.1-0.3c0.6,2.2-0.7,3.6-2.7,3.4c-2.3-0.2-4.9-2.6-4.8-5.4
			c0-1.7,1-2.9,3-2.9c0.9,0,1.3,0.3,2,0.6c-0.3-0.9,0.7-1.3,1.4-0.9c-0.1-0.5-0.4-0.8-0.9-0.9c-0.4-0.1-0.9,0.1-1.1-0.2
			c0.2-0.3,0.6,0,0.9-0.2c-1.7-1.3-3.8-2.5-6.7-2.7C5.8,1.2,4.6,1.3,3.1,1.6c-0.7,0.1-2.1,0.4-2,1c0,0.4,0.9,0.8,1.1,1
			c0.6,0.6,1.2,1.5,1.5,2.5c0.2,0.7,0.7,2.6,1.5,2.5c0.6,0,0.8-1.1,1.2-1.5c0.3-0.3,0.6-0.2,1-0.6C7.4,6,6.7,6,6.5,5.6
			C7.1,5.6,7.8,6,8,6.6C7.8,6.9,7.5,7,7.2,7.1c0.4,0.6,0.7,1.5,1.2,1.7c0.1-0.4,0-1,0.1-1.3c0.1,3.6,1.7,5.2,4.1,6.3
			c0.8,0.4,2.5,0.8,2.6,1.7c0.1,0.8-0.8,1.7-1.4,2.1c-3.4,2.1-8-0.2-10-2.3c-1.6-1.6-2.9-3.8-3-6.6C0.7,7.5,0.8,6.5,1.1,5.7
			c0.1-0.4,0.6-1.1,0.1-1.5c-0.6,0.2-0.7,1-0.8,1.5C0.2,6.4,0,7.1,0,7.8C-0.3,14.9,4.4,19.7,10.8,20c1.5,0.1,2.8-0.3,3.9-0.8
			c0.9-0.4,2.1-1.1,2.5-2.3c0.2-0.5,0.2-1.6,0-2c-0.2-0.3-0.7-0.5-0.6-1c1,0.7,2,2,1.4,3.8c1.5,0.4,2-1.7,1.5-2.8
			c-0.5-0.9-1.7-1.1-1.9-1.7c0.7,0.5,1.8,0.6,2.3,1.3c0.2,0.2,0.2,0.5,0.5,0.7c0.4-0.2,0.6-0.5,0.5-1C20.6,13,18.6,13.1,18.2,12.3z
			 M11,4.4c-0.4,0.4-1,0.4-1.4,0.7c-0.4,0.3-0.4,1-0.9,1.1C9,5.1,10,4.3,11,4.4z M17.6,10c0.2-0.2,0.2-0.8,0.1-1.3
			c-0.2-1.7-1.7-3.7-3.4-3.5c-0.6,0.8,0.1,1.3,0.5,1.7c0.8,0.8,1.2,1.7,1.5,2.9C16.7,10.1,17.3,10.3,17.6,10z M17,8
			c-0.7-0.2-1.2-0.9-1.2-1.7C16.2,5.8,17.4,7.3,17,8z M11.5,5.9c-1,0.1-1.8,0.7-2,1.4c-1.1,2.9,2.2,6,4.5,5.9c0.6,0,1.3-0.3,1.7-0.8
			c1.2-1.4,0-4.4-0.8-5.3C14.3,6.5,12.9,5.7,11.5,5.9z M13.3,10.3c-1.1-0.1-2.2-2.5-0.8-3c0.6-0.2,1.5,0.2,1.8,0.9
			C14.8,9.1,14.4,10.4,13.3,10.3z"/>
	</g>
</g>
<g>
	<g>
		<path d="M1.2,55.3c3.1,2.6,6.2,5.3,9.3,7.7c3.1-2.5,6.2-5.2,9.2-7.7c0.1-0.1,0.3-0.2,0.2-0.2c-5.3-0.1-11,0-16.4,0
			c-0.8,0-1.6-0.1-2.4,0c0,0-0.1,0-0.1,0C0.9,55.1,1.2,55.3,1.2,55.3z M1.8,57.3c-0.6-0.5-1.1-1-1.7-1.4c0,0.1,0,0.2,0,0.3v11.7
			c0,0.1,0.1,0.2,0.1,0.2c2.3-2.1,4.6-4.3,6.8-6.5C5.2,60.2,3.5,58.7,1.8,57.3z M20.8,58.9c0-0.9,0-2.3,0-3.1
			c-2.3,1.8-4.5,3.8-6.8,5.7c2.2,2.1,4.4,4.3,6.6,6.3c0.1,0.1,0.2,0.2,0.2,0.1C20.9,65.1,20.8,62,20.8,58.9z M19.1,68.1
			c-0.3-0.3-0.6-0.5-0.8-0.8c-1.5-1.5-3.2-3-4.7-4.5c-0.1-0.1-0.4-0.4-0.4-0.4c0,0-0.2,0.2-0.3,0.3c-0.8,0.6-1.6,1.3-2.3,1.9
			c-0.9-0.7-1.7-1.4-2.6-2.1c-1.1,1-2.3,2.2-3.5,3.3c-1.1,1-2.1,2.1-3.2,3c0,0-0.2,0.1-0.1,0.2c6.2,0.1,12.7,0.1,18.9,0
			C19.7,68.6,19.4,68.3,19.1,68.1z"/>
	</g>
</g>
</svg>
