<?xml version="1.0" encoding="utf-8"?>
<!-- Generator: Adobe Illustrator 18.0.0, SVG Export Plug-In . SVG Version: 6.00 Build 0)  -->
<!DOCTYPE svg PUBLIC "-//W3C//DTD SVG 1.1//EN" "http://www.w3.org/Graphics/SVG/1.1/DTD/svg11.dtd">
<svg version="1.1" id="Layer_1" xmlns="http://www.w3.org/2000/svg" xmlns:xlink="http://www.w3.org/1999/xlink" x="0px" y="0px"
	 viewBox="0 0 20.9 17" enable-background="new 0 0 20.9 17" xml:space="preserve">
<path d="M15.9-53.8c0,1.1,0,2.3,0,3.4c-0.6-0.1-1.3-0.1-2-0.1c-0.6,0-1.3,0.1-1.6,0.5c-0.3,0.4-0.2,1.1-0.2,1.7c0,0.7,0,1.3,0,1.9
	c1.2,0,2.4,0,3.7,0c-0.2,1.2-0.4,2.4-0.6,3.7c-1,0-2.1,0-3,0c0,3.2,0,6.5,0,9.7c-1.4,0-2.7,0-4.1,0c0-3.2,0-6.5,0-9.7
	c-1,0-2.1,0-3.1,0c0-1.2,0-2.4,0-3.7c1.1,0,2.2,0,3.3,0c-0.1-0.9-0.1-1.9-0.1-2.8c0-0.9,0.1-1.8,0.4-2.4c0.4-0.7,0.9-1.3,1.6-1.8
	c0.7-0.5,1.6-0.7,2.7-0.8C13.9-54.1,15.1-54,15.9-53.8z"/>
<path d="M17.6,1.3c1-0.2,1.9-0.6,2.7-1c-0.3,1-1,1.7-1.7,2.3c0.9,0,1.5-0.4,2.3-0.5c-0.5,0.9-1.4,1.5-2.1,2.2
	c0,6.8-4.6,12.2-11,12.7c-2.9,0.2-5.6-0.5-7.8-1.8c2.4,0.1,4.7-0.7,6.2-1.8c-2-0.3-3.4-1.3-4-3.1c0.6,0.1,1.1,0,1.7,0
	C2.3,9.5,0.8,8.4,0.7,6c0.6,0.2,1,0.4,1.7,0.5C1.3,5.6,0.1,2.8,1.3,0.8C3.5,3,5.9,5,10.1,5.2C9.3,0.6,15-1.6,17.6,1.3z"/>
<g>
	<g>
		<path d="M11.6,62.4c-0.7-0.6-2.2-1.3-2.3-2.2c-0.2-1.4,1.3-1.9,2-2.7c0.5-0.6,1.1-1.7,1.1-2.8c0-1.6-0.8-2.7-1.8-3.6
			c1.7,0.2,2.4-0.6,3.3-1.1C11.5,50,9.2,49.9,7.1,50c-3.4,0.3-6,2-5.7,5.5c0.2,2.5,2.5,4.3,5.5,4c-0.7,1,0.1,2.3,0.5,2.9
			c-3.6,0.2-7.1,1.1-7.4,4.3c-0.3,3,2.6,4.2,5.3,4.3c2.7,0.2,5.3-0.7,6.7-2c0.6-0.6,1.3-1.6,1.4-2.6C13.5,64.3,12.6,63.2,11.6,62.4z
			 M6.1,51.1c0.5-0.1,1.2,0.1,1.6,0.3c2.1,1.2,3.5,7-0.1,7.4C3.9,59.3,2,51.5,6.1,51.1z M2.8,67.8c-0.3-0.5-0.6-1.4-0.2-2.3
			c0.6-1.7,3.1-2.3,5.8-2.3c1.4,1.2,3.1,1.6,3.1,3.6C11.5,70.6,4.3,70.5,2.8,67.8z M18.1,59.3v-2.8h-1.4v2.8h-2.8v1.4
			c0.9,0,2-0.1,2.8,0.1v2.7h1.4v-2.8h2.8v-1.4H18.1z"/>
	</g>
</g>
<g>
	<g>
		<path d="M19.2,108.5c0.4-1.7-0.3-3.7-0.7-5c-1.6,0.2-2.9,0.9-4.1,1.6c-0.4,0.2-0.9,0.7-1.2,0.7c-0.4,0-0.8-0.2-1.3-0.2
			c-1.6-0.1-3,0-4.3,0.2c-1.5-1-3-2-5.2-2.3c-0.1,0-0.1,0.1-0.1,0.1c-0.5,1.3-1,3.1-0.7,4.9c-0.9,1.1-1.6,2.2-1.7,4
			c-0.2,3.2,0.8,5.7,2.6,7.1c1.8,1.5,4.9,1.8,7.9,1.8c3.1,0,5.9-0.3,7.7-1.7c1.8-1.3,2.7-3.6,2.7-6.7
			C20.9,110.9,20.2,109.6,19.2,108.5z M17.2,118.7c-1.3,1.3-4,1.5-6.4,1.6c-2.9,0.1-6.3-0.3-7.3-2c-0.5-0.8-0.8-2.4-0.5-3.7
			c0.4-1.4,1.5-2.2,3.2-2.4c1.6-0.1,3.1,0.2,4.9,0.1c0.8,0,1.6-0.1,2.4-0.1c0.9,0,2-0.1,2.7,0.2C18.2,113.3,18.9,116.9,17.2,118.7z
			 M6.7,113.9c-1.7,0.2-1.7,3.5-0.3,4C8.7,118.8,9,113.6,6.7,113.9z M13.9,113.9c-1.7,0.2-1.7,3.4-0.3,4
			C15.9,118.8,16.3,113.6,13.9,113.9z"/>
	</g>
</g>
<g>
	<g>
		<path d="M17.6,204.9c-0.5-0.3-1.2,0.2-1.9,0.2c0.5,3,1,6.1,1.5,9.1c0.6-0.1,1.1-0.3,1.8-0.3C18.7,210.7,18,208,17.6,204.9z
			 M10.5,207.9c1.6,2.4,3.2,4.9,4.7,7.4c0.8-0.1,0.9-0.8,1.6-0.9c-1.5-2.6-3.2-5-4.7-7.5C11.4,206.9,11,207.5,10.5,207.9z
			 M15.1,215.6c-2.5-1.5-4.8-3.3-7.5-4.5c-0.2,0.7-0.7,0.9-0.7,1.7c2.5,1.4,4.9,3.1,7.4,4.5C14.4,216.6,14.8,216.2,15.1,215.6z
			 M13.9,217.8c-2.7-0.8-5.5-1.6-8.3-2.4c-0.1,0.7-0.4,1.2-0.4,1.9c2.8,0.8,5.5,1.7,8.4,2.4C13.6,218.9,14,218.6,13.9,217.8z
			 M14.5,226.2H3.4v-7.8H2.1c-0.3,2.8,0,6.3-0.1,9.4h14.2v-9.4h-1.5C14.6,221,14.8,223.9,14.5,226.2z M4.8,221.5
			c2.9,0.1,5.6,0.5,8.4,0.8c0.2-0.5,0.2-1.4,0.3-2c-2.9-0.2-5.6-0.6-8.6-0.8C4.6,219.9,4.8,220.9,4.8,221.5z M13.2,222.8H4.6v2h8.6
			V222.8z"/>
	</g>
</g>
<g>
	<g>
		<path d="M10.4,154.3H6.1c-3.1,0-5.7,2.6-5.7,5.7v4.3h4.4v-4.3c0-0.7,0.6-1.3,1.3-1.3h4.3V154.3z M16.1,164.4v4.3
			c0,0.7-0.6,1.3-1.3,1.3h-4.3v4.4h4.3c3.1,0,5.7-2.6,5.7-5.7v-4.3H16.1z"/>
	</g>
</g>
<g>
	<g>
		<path d="M18.1,270.6c0.5,0.2,1.1,0.4,1.8,0.4c0.7-0.8,0.8-1.8,0.9-2.9c0.1-2.9-1.2-5.5-2.9-7.2c-1.6-1.6-4-2.6-6.3-2.7
			c-0.2,0-0.4,0-0.6,0c-1.2,0.2-2.5,0.3-3.3,1c0.8,0.2,1.4-0.1,2.1-0.3c2.9-0.5,5.7,0.5,7.4,2.1c1.7,1.7,3.5,5.3,1.9,8.2
			c0.4,0.1,0.3-0.6,0.6-0.5c0,1.2-2.3,1.5-2.3,0.1c-0.4-0.1-0.8-0.1-1.1-0.3c0.6,2.2-0.7,3.6-2.7,3.4c-2.3-0.2-4.9-2.6-4.8-5.4
			c0-1.7,1-2.9,3-2.9c0.9,0,1.3,0.3,2,0.6c-0.3-0.9,0.7-1.3,1.4-0.9c-0.1-0.5-0.4-0.8-0.9-0.9c-0.4-0.1-0.9,0.1-1.1-0.2
			c0.2-0.3,0.6,0,0.9-0.2c-1.7-1.3-3.8-2.5-6.7-2.7c-1.7-0.1-2.9,0.1-4.5,0.4c-0.7,0.1-2.1,0.4-2,1c0,0.4,0.9,0.8,1.1,1
			c0.6,0.6,1.2,1.5,1.5,2.5c0.2,0.7,0.7,2.6,1.5,2.5c0.6,0,0.8-1.1,1.2-1.5c0.3-0.3,0.6-0.2,1-0.6c-0.1-0.6-0.7-0.5-0.9-1
			c0.6,0.1,1.3,0.4,1.5,1.1c-0.2,0.2-0.5,0.3-0.8,0.5c0.4,0.6,0.7,1.5,1.2,1.7c0.1-0.4,0-1,0.1-1.3c0.1,3.6,1.7,5.2,4.1,6.3
			c0.8,0.4,2.5,0.8,2.6,1.7c0.1,0.8-0.8,1.7-1.4,2.1c-3.4,2.1-8-0.2-10-2.3c-1.6-1.6-2.9-3.8-3-6.6c-0.1-1.2,0.1-2.2,0.3-3.1
			c0.1-0.4,0.6-1.1,0.1-1.5c-0.6,0.2-0.7,1-0.8,1.5c-0.2,0.7-0.3,1.4-0.3,2.1c-0.3,7.1,4.4,11.9,10.8,12.2c1.5,0.1,2.8-0.3,3.9-0.8
			c0.9-0.4,2.1-1.1,2.5-2.3c0.2-0.5,0.2-1.6,0-2c-0.2-0.3-0.7-0.5-0.6-1c1,0.7,2,2,1.4,3.8c1.5,0.4,2-1.7,1.5-2.8
			c-0.5-0.9-1.7-1.1-1.9-1.7c0.7,0.5,1.8,0.6,2.3,1.3c0.2,0.2,0.2,0.5,0.5,0.7c0.4-0.2,0.6-0.5,0.5-1
			C20.6,271.2,18.6,271.4,18.1,270.6z M11,262.7c-0.4,0.4-1,0.4-1.4,0.7c-0.4,0.3-0.4,1-0.9,1.1C9,263.4,10,262.5,11,262.7z
			 M17.6,268.3c0.2-0.2,0.2-0.8,0.1-1.3c-0.2-1.7-1.7-3.7-3.4-3.5c-0.6,0.8,0.1,1.3,0.5,1.7c0.8,0.8,1.2,1.7,1.5,2.9
			C16.7,268.3,17.3,268.6,17.6,268.3z M17,266.3c-0.7-0.2-1.2-0.9-1.2-1.7C16.2,264.1,17.4,265.6,17,266.3z M11.5,264.1
			c-1,0.1-1.8,0.7-2,1.4c-1.1,2.9,2.2,6,4.5,5.9c0.6,0,1.3-0.3,1.7-0.8c1.2-1.4,0-4.4-0.8-5.3C14.3,264.7,12.8,263.9,11.5,264.1z
			 M13.3,268.5c-1.1-0.1-2.2-2.5-0.8-3c0.6-0.2,1.5,0.2,1.8,0.9C14.8,267.4,14.4,268.7,13.3,268.5z"/>
	</g>
</g>
<g>
	<g>
		<path d="M1.2,313.5c3.1,2.6,6.2,5.3,9.3,7.7c3.1-2.5,6.2-5.2,9.2-7.7c0.1-0.1,0.3-0.2,0.2-0.2c-5.3-0.1-11,0-16.4,0
			c-0.8,0-1.6-0.1-2.4,0c0,0-0.1,0-0.1,0C0.9,313.3,1.2,313.6,1.2,313.5z M1.8,315.5c-0.6-0.5-1.1-1-1.7-1.4c0,0.1,0,0.2,0,0.3v11.7
			c0,0.1,0.1,0.2,0.1,0.2c2.3-2.1,4.6-4.3,6.8-6.5C5.2,318.4,3.5,317,1.8,315.5z M20.8,317.2c0-0.9,0-2.3,0-3.1
			c-2.3,1.8-4.5,3.8-6.8,5.7c2.2,2.1,4.4,4.3,6.6,6.3c0.1,0.1,0.2,0.2,0.2,0.1C20.9,323.4,20.8,320.2,20.8,317.2z M19.1,326.3
			c-0.3-0.3-0.6-0.5-0.8-0.8c-1.5-1.5-3.2-3-4.7-4.5c-0.1-0.1-0.4-0.4-0.4-0.4c0,0-0.2,0.2-0.3,0.3c-0.8,0.6-1.6,1.3-2.3,1.9
			c-0.9-0.7-1.7-1.4-2.6-2.1c-1.1,1-2.3,2.2-3.5,3.3c-1.1,1-2.1,2.1-3.2,3c0,0-0.2,0.1-0.1,0.2c6.2,0.1,12.7,0.1,18.9,0
			C19.7,326.9,19.4,326.6,19.1,326.3z"/>
	</g>
</g>
</svg>
